<?xml version="1.0" standalone="no"?>
<!DOCTYPE svg PUBLIC "-//W3C//DTD SVG 20010904//EN"
 "http://www.w3.org/TR/2001/REC-SVG-20010904/DTD/svg10.dtd">
<svg version="1.0" xmlns="http://www.w3.org/2000/svg"
 width="626.000000pt" height="626.000000pt" viewBox="0 0 626.000000 626.000000"
 preserveAspectRatio="xMidYMid meet">

<g transform="translate(0.000000,626.000000) scale(0.100000,-0.100000)"
fill="#000000" stroke="none">
<path d="M2925 5653 c-307 -37 -462 -72 -682 -153 -587 -219 -1083 -660 -1362
-1212 -84 -167 -101 -208 -155 -371 -106 -319 -148 -691 -115 -1023 57 -581
296 -1102 694 -1513 212 -219 422 -376 678 -505 966 -491 2130 -315 2906 439
351 341 580 738 695 1205 49 199 66 324 72 535 20 614 -188 1223 -574 1685
-441 527 -1036 842 -1716 909 -101 10 -372 13 -441 4z m287 -950 c232 -109
333 -380 225 -607 -169 -356 -661 -353 -831 4 -29 61 -31 71 -31 185 0 117 1
122 36 195 56 116 145 195 279 246 23 9 71 13 145 11 100 -2 116 -5 177 -34z
m1012 -297 c70 -34 149 -120 170 -183 29 -87 30 -135 7 -211 -27 -88 -95 -168
-179 -209 -49 -24 -69 -28 -142 -28 -74 0 -92 4 -143 30 -269 135 -240 528 46
621 66 22 174 13 241 -20z m184 -718 c18 -18 17 -1367 -1 -1391 -11 -15 -49
-17 -394 -19 l-382 -3 80 -145 c92 -165 322 -590 327 -602 2 -5 -29 -8 -69 -6
l-73 3 -41 75 c-23 41 -113 207 -200 368 -87 160 -161 292 -164 292 -3 -1 -96
-167 -206 -370 l-200 -370 -73 0 -74 0 48 88 c26 48 119 218 206 377 l158 290
-388 5 -387 5 -3 695 c-1 382 0 701 3 708 6 17 1815 18 1833 0z m-2577 -124
c134 -64 325 -154 424 -201 99 -47 186 -92 193 -101 9 -12 12 -80 12 -261 0
-135 -3 -256 -6 -267 -4 -16 -36 -36 -112 -72 -59 -28 -255 -120 -435 -206
-181 -86 -334 -156 -341 -156 -35 0 -36 12 -36 686 0 364 3 669 6 678 3 9 16
16 29 16 12 0 132 -52 266 -116z"/>
<path d="M2984 4640 c-31 -12 -54 -49 -54 -88 0 -48 46 -92 95 -92 45 0 95 45
95 85 0 76 -68 123 -136 95z"/>
<path d="M2697 4360 c-51 -41 -43 -126 16 -156 39 -21 90 -11 117 23 67 86
-47 200 -133 133z"/>
<path d="M2959 4351 c-73 -74 5 -189 103 -152 31 11 58 57 58 96 0 40 -50 85
-95 85 -27 0 -44 -8 -66 -29z"/>
<path d="M3225 4355 c-19 -18 -25 -35 -25 -69 0 -37 5 -48 31 -70 17 -14 43
-26 58 -26 34 0 79 33 92 68 12 32 -5 87 -34 107 -34 24 -94 19 -122 -10z"/>
<path d="M2955 4084 c-71 -77 14 -194 108 -149 60 28 74 93 31 144 -22 26 -33
31 -70 31 -36 0 -50 -5 -69 -26z"/>
<path d="M4042 4353 c-35 -30 -38 -68 -8 -97 31 -31 55 -33 90 -5 35 28 35 70
0 98 -33 26 -55 26 -82 4z"/>
<path d="M3836 4148 c-34 -48 -7 -108 48 -108 46 0 71 30 67 82 -3 48 -87 67
-115 26z"/>
<path d="M4036 4155 c-44 -44 -18 -108 47 -113 27 -2 39 2 51 20 34 49 7 108
-49 108 -18 0 -40 -7 -49 -15z"/>
<path d="M4227 4152 c-21 -23 -22 -61 -1 -90 19 -28 74 -30 97 -4 22 25 21 75
-1 95 -25 22 -75 21 -95 -1z"/>
<path d="M4034 3954 c-30 -29 -27 -67 8 -96 27 -23 49 -23 82 3 35 28 35 70 0
98 -35 28 -59 26 -90 -5z"/>
<path d="M2750 2744 l0 -94 180 0 181 0 -3 93 -3 92 -177 2 -178 2 0 -95z"/>
<path d="M3310 2745 l0 -95 180 0 180 0 0 95 0 95 -180 0 -180 0 0 -95z"/>
<path d="M3880 2745 l0 -95 180 0 181 0 -3 93 -3 92 -177 3 -178 2 0 -95z"/>
</g>
</svg>
