<?xml version="1.0" standalone="no"?>
<!DOCTYPE svg PUBLIC "-//W3C//DTD SVG 20010904//EN"
 "http://www.w3.org/TR/2001/REC-SVG-20010904/DTD/svg10.dtd">
<svg version="1.0" xmlns="http://www.w3.org/2000/svg"
 width="626.000000pt" height="626.000000pt" viewBox="0 0 626.000000 626.000000"
 preserveAspectRatio="xMidYMid meet">

<g transform="translate(0.000000,626.000000) scale(0.100000,-0.100000)"
fill="#000000" stroke="none">
<path d="M2925 5653 c-307 -37 -462 -72 -682 -153 -588 -219 -1083 -660 -1363
-1214 -83 -164 -100 -206 -155 -369 -207 -623 -154 -1334 145 -1926 239 -476
635 -873 1111 -1114 890 -452 1959 -343 2734 280 134 108 342 323 440 456 206
276 348 577 429 907 49 199 66 324 72 535 23 711 -246 1380 -757 1882 -418
410 -942 654 -1533 712 -101 10 -372 13 -441 4z m287 -951 c292 -141 359 -512
134 -738 -213 -213 -569 -165 -718 97 -47 81 -61 142 -56 247 3 83 8 107 35
165 36 76 116 166 183 205 86 51 136 63 250 59 94 -2 112 -6 172 -35z m1012
-296 c71 -35 145 -116 170 -186 25 -69 25 -160 2 -228 -24 -70 -100 -153 -174
-189 -49 -24 -69 -28 -142 -28 -74 0 -92 4 -143 30 -116 58 -187 173 -187 300
0 144 75 251 217 311 78 33 176 29 257 -10z m186 -725 c16 -31 14 -1362 -3
-1384 -11 -15 -49 -17 -394 -19 l-381 -3 204 -374 c112 -205 204 -376 204
-378 0 -2 -32 -3 -72 -1 l-72 3 -41 75 c-23 41 -113 207 -200 368 -87 160
-161 292 -164 292 -3 0 -32 -48 -64 -108 -31 -59 -81 -150 -110 -202 -28 -53
-92 -171 -142 -263 l-90 -167 -73 0 -74 0 48 88 c26 48 119 218 206 377 l158
290 -388 5 -387 5 -3 695 c-1 382 0 701 3 708 3 9 196 12 914 12 890 0 911 0
921 -19z m-2400 -202 c234 -111 431 -209 438 -217 9 -12 12 -80 12 -261 0
-135 -3 -256 -6 -267 -4 -16 -36 -36 -112 -72 -59 -28 -255 -120 -435 -206
-181 -86 -334 -156 -341 -156 -35 0 -36 12 -36 686 0 364 3 669 6 678 3 9 16
16 28 16 11 0 212 -90 446 -201z"/>
<path d="M2984 4641 c-57 -24 -71 -100 -28 -150 36 -44 93 -44 136 -1 27 27
30 36 25 72 -3 22 -14 49 -24 60 -22 22 -79 32 -109 19z"/>
<path d="M2697 4360 c-31 -25 -44 -78 -27 -111 33 -65 102 -78 151 -30 83 83
-32 213 -124 141z"/>
<path d="M2959 4351 c-21 -22 -29 -39 -29 -66 0 -27 8 -44 29 -66 62 -62 161
-15 161 76 0 40 -50 85 -95 85 -27 0 -44 -8 -66 -29z"/>
<path d="M3225 4355 c-19 -18 -25 -35 -25 -69 0 -37 5 -48 31 -70 78 -66 185
13 145 107 -17 42 -41 57 -91 57 -25 0 -43 -8 -60 -25z"/>
<path d="M2955 4084 c-68 -73 5 -185 100 -154 64 21 84 96 39 149 -22 26 -33
31 -70 31 -36 0 -50 -5 -69 -26z"/>
<path d="M4042 4353 c-35 -30 -38 -68 -8 -97 31 -31 55 -33 90 -5 35 28 35 70
0 98 -33 26 -55 26 -82 4z"/>
<path d="M3836 4148 c-35 -50 -8 -108 50 -108 37 0 50 9 62 40 10 27 -1 69
-21 82 -25 16 -76 8 -91 -14z"/>
<path d="M4035 4156 c-13 -9 -19 -26 -19 -51 0 -44 22 -65 70 -65 23 0 38 7
48 22 34 48 7 108 -48 108 -18 0 -41 -6 -51 -14z"/>
<path d="M4227 4152 c-22 -25 -21 -75 1 -95 25 -22 75 -21 95 1 22 25 21 75
-1 95 -25 22 -75 21 -95 -1z"/>
<path d="M4035 3955 c-14 -13 -25 -33 -25 -45 0 -26 43 -70 68 -70 11 0 31 9
46 21 35 28 35 70 0 98 -35 27 -59 26 -89 -4z"/>
<path d="M2750 2744 l0 -94 180 0 180 0 0 95 0 96 -180 -1 -180 -2 0 -94z"/>
<path d="M3310 2744 l0 -94 180 0 180 0 0 95 0 96 -180 -1 -180 -2 0 -94z"/>
<path d="M3880 2745 l0 -95 180 0 180 0 0 95 0 95 -180 0 -180 0 0 -95z"/>
</g>
</svg>
